<svg version="1.1" xmlns="http://www.w3.org/2000/svg" xmlns:xlink="http://www.w3.org/1999/xlink" x="0px" y="0px" viewBox="0 0 28 28" width="12px" height="12px" fill="none"><path opacity="0.8" fill-rule="evenodd" clip-rule="evenodd" d="M25.7973 19.6C25.7973 24.2392 21.9801 28 17.2714 28H1.16669V22.4H17.2714C18.8409 22.4 20.1134 21.1464 20.1134 19.6C20.1134 18.0536 18.8409 16.8 17.2714 16.8H11.5874V11.2H17.2714C18.8409 11.2 20.1134 9.9464 20.1134 8.4C20.1134 6.8536 18.8409 5.6 17.2714 5.6H1.16669V0H17.2714C21.9801 0 25.7973 3.76081 25.7973 8.4C25.7973 10.5514 24.9764 12.5139 23.6264 14C24.9764 15.4861 25.7973 17.4486 25.7973 19.6Z" fill="#FE815F"></path><path opacity="0.12" fill-rule="evenodd" clip-rule="evenodd" d="M1.16671 5.6H14.999C12.0608 2.19955 7.3829 0 2.11404 0C1.79603 0 1.48016 0.008013 1.16671 0.0238194V5.6ZM17.8966 16.8H12.5347V11.2H17.8966C18.1078 12.1047 18.2187 13.0411 18.2187 14C18.2187 14.9589 18.1078 15.8953 17.8966 16.8ZM1.16669 22.4H14.9989C12.0608 25.8005 7.38288 28 2.11402 28C1.79601 28 1.48014 27.992 1.16669 27.9762V22.4Z" fill="black"></path><path d="M1.16669 0C9.01465 0 15.3767 6.26801 15.3767 14C15.3767 21.732 9.01465 28 1.16669 28V22.4C5.87547 22.4 9.69269 18.6392 9.69269 14C9.69269 9.36081 5.87547 5.6 1.16669 5.6V0Z" fill="#FF6238"></path></svg>